<mxfile host="app.diagrams.net" modified="2021-10-27T03:33:24.341Z" agent="5.0 (Windows NT 10.0; Win64; x64) AppleWebKit/537.36 (KHTML, like Gecko) Chrome/84.0.4147.89 Safari/537.36" etag="BE_NMj7ympRoEzd6MU2y" version="15.5.9" type="github">
  <diagram id="Chmw2fx7Nd-Ume3z_her" name="Page-1">
    <mxGraphModel dx="1662" dy="762" grid="1" gridSize="10" guides="1" tooltips="1" connect="1" arrows="1" fold="1" page="1" pageScale="1" pageWidth="850" pageHeight="1100" math="0" shadow="0">
      <root>
        <mxCell id="0" />
        <mxCell id="1" parent="0" />
        <mxCell id="JrEnGwfE29LNn3WhBIr7-6" value="Y" style="edgeStyle=orthogonalEdgeStyle;rounded=0;orthogonalLoop=1;jettySize=auto;html=1;exitX=0.5;exitY=1;exitDx=0;exitDy=0;entryX=0.5;entryY=0;entryDx=0;entryDy=0;startArrow=none;" edge="1" parent="1" source="JrEnGwfE29LNn3WhBIr7-16" target="JrEnGwfE29LNn3WhBIr7-5">
          <mxGeometry relative="1" as="geometry">
            <mxPoint x="220" y="240" as="sourcePoint" />
          </mxGeometry>
        </mxCell>
        <mxCell id="JrEnGwfE29LNn3WhBIr7-18" style="edgeStyle=orthogonalEdgeStyle;rounded=0;orthogonalLoop=1;jettySize=auto;html=1;exitX=0.5;exitY=1;exitDx=0;exitDy=0;entryX=0.5;entryY=0;entryDx=0;entryDy=0;" edge="1" parent="1" source="JrEnGwfE29LNn3WhBIr7-1" target="JrEnGwfE29LNn3WhBIr7-16">
          <mxGeometry relative="1" as="geometry" />
        </mxCell>
        <mxCell id="JrEnGwfE29LNn3WhBIr7-1" value="Start" style="ellipse;whiteSpace=wrap;html=1;aspect=fixed;" vertex="1" parent="1">
          <mxGeometry x="200" y="80" width="40" height="40" as="geometry" />
        </mxCell>
        <mxCell id="JrEnGwfE29LNn3WhBIr7-8" value="Y" style="edgeStyle=orthogonalEdgeStyle;rounded=0;orthogonalLoop=1;jettySize=auto;html=1;exitX=1;exitY=0.5;exitDx=0;exitDy=0;" edge="1" parent="1" source="JrEnGwfE29LNn3WhBIr7-2" target="JrEnGwfE29LNn3WhBIr7-3">
          <mxGeometry relative="1" as="geometry" />
        </mxCell>
        <mxCell id="JrEnGwfE29LNn3WhBIr7-13" value="N" style="edgeStyle=orthogonalEdgeStyle;rounded=0;orthogonalLoop=1;jettySize=auto;html=1;exitX=0.5;exitY=1;exitDx=0;exitDy=0;entryX=0.5;entryY=0;entryDx=0;entryDy=0;" edge="1" parent="1" source="JrEnGwfE29LNn3WhBIr7-2" target="JrEnGwfE29LNn3WhBIr7-9">
          <mxGeometry relative="1" as="geometry" />
        </mxCell>
        <mxCell id="JrEnGwfE29LNn3WhBIr7-2" value="Parent info&lt;br&gt;exists?" style="rhombus;whiteSpace=wrap;html=1;" vertex="1" parent="1">
          <mxGeometry x="180" y="350" width="80" height="80" as="geometry" />
        </mxCell>
        <mxCell id="JrEnGwfE29LNn3WhBIr7-10" style="edgeStyle=orthogonalEdgeStyle;rounded=0;orthogonalLoop=1;jettySize=auto;html=1;exitX=0.5;exitY=1;exitDx=0;exitDy=0;" edge="1" parent="1" source="JrEnGwfE29LNn3WhBIr7-3" target="JrEnGwfE29LNn3WhBIr7-9">
          <mxGeometry relative="1" as="geometry" />
        </mxCell>
        <mxCell id="JrEnGwfE29LNn3WhBIr7-3" value="Create Associate with Parent" style="rounded=0;whiteSpace=wrap;html=1;" vertex="1" parent="1">
          <mxGeometry x="270" y="470" width="120" height="60" as="geometry" />
        </mxCell>
        <mxCell id="JrEnGwfE29LNn3WhBIr7-7" style="edgeStyle=orthogonalEdgeStyle;rounded=0;orthogonalLoop=1;jettySize=auto;html=1;exitX=0.5;exitY=1;exitDx=0;exitDy=0;" edge="1" parent="1" source="JrEnGwfE29LNn3WhBIr7-5" target="JrEnGwfE29LNn3WhBIr7-2">
          <mxGeometry relative="1" as="geometry" />
        </mxCell>
        <mxCell id="JrEnGwfE29LNn3WhBIr7-5" value="Create SR" style="shape=process;whiteSpace=wrap;html=1;backgroundOutline=1;" vertex="1" parent="1">
          <mxGeometry x="160" y="270" width="120" height="60" as="geometry" />
        </mxCell>
        <mxCell id="JrEnGwfE29LNn3WhBIr7-23" style="edgeStyle=orthogonalEdgeStyle;rounded=0;orthogonalLoop=1;jettySize=auto;html=1;exitX=0.5;exitY=1;exitDx=0;exitDy=0;" edge="1" parent="1" source="JrEnGwfE29LNn3WhBIr7-9" target="JrEnGwfE29LNn3WhBIr7-22">
          <mxGeometry relative="1" as="geometry" />
        </mxCell>
        <mxCell id="JrEnGwfE29LNn3WhBIr7-9" value="Redirect to Landing page" style="rounded=0;whiteSpace=wrap;html=1;" vertex="1" parent="1">
          <mxGeometry x="160" y="590" width="120" height="60" as="geometry" />
        </mxCell>
        <mxCell id="JrEnGwfE29LNn3WhBIr7-14" value="input&lt;br&gt;1.SR Type&lt;br&gt;2.Creator Info&lt;br&gt;&lt;br&gt;output&lt;br&gt;1.SR Id" style="shape=callout;whiteSpace=wrap;html=1;perimeter=calloutPerimeter;size=10;position=0.08;position2=0;" vertex="1" parent="1">
          <mxGeometry x="290" y="200" width="210" height="100" as="geometry" />
        </mxCell>
        <mxCell id="JrEnGwfE29LNn3WhBIr7-15" value="input&lt;br&gt;1.SR Type&lt;br&gt;2.Parent SR Id (Optional)&lt;br&gt;3.Creator info (Session)" style="shape=callout;whiteSpace=wrap;html=1;perimeter=calloutPerimeter;size=10;position=0.08;position2=0;" vertex="1" parent="1">
          <mxGeometry x="250" y="30" width="200" height="80" as="geometry" />
        </mxCell>
        <mxCell id="JrEnGwfE29LNn3WhBIr7-24" style="edgeStyle=orthogonalEdgeStyle;rounded=0;orthogonalLoop=1;jettySize=auto;html=1;exitX=0;exitY=0.5;exitDx=0;exitDy=0;entryX=0;entryY=0.5;entryDx=0;entryDy=0;" edge="1" parent="1" source="JrEnGwfE29LNn3WhBIr7-16" target="JrEnGwfE29LNn3WhBIr7-22">
          <mxGeometry relative="1" as="geometry">
            <Array as="points">
              <mxPoint x="100" y="190" />
              <mxPoint x="100" y="700" />
            </Array>
          </mxGeometry>
        </mxCell>
        <mxCell id="JrEnGwfE29LNn3WhBIr7-16" value="Validate&lt;br&gt;SR Creation" style="rhombus;whiteSpace=wrap;html=1;" vertex="1" parent="1">
          <mxGeometry x="180" y="150" width="80" height="80" as="geometry" />
        </mxCell>
        <mxCell id="JrEnGwfE29LNn3WhBIr7-19" value="input&lt;br&gt;1.SR Id&lt;br&gt;2.Parent SR Id" style="shape=callout;whiteSpace=wrap;html=1;perimeter=calloutPerimeter;size=10;position=0.08;position2=0;" vertex="1" parent="1">
          <mxGeometry x="400" y="430" width="140" height="60" as="geometry" />
        </mxCell>
        <mxCell id="JrEnGwfE29LNn3WhBIr7-21" value="Is Parent SR Id is not null" style="shape=callout;whiteSpace=wrap;html=1;perimeter=calloutPerimeter;size=10;position=0.75;position2=1;" vertex="1" parent="1">
          <mxGeometry x="40" y="350" width="120" height="50" as="geometry" />
        </mxCell>
        <mxCell id="JrEnGwfE29LNn3WhBIr7-22" value="End" style="ellipse;whiteSpace=wrap;html=1;aspect=fixed;" vertex="1" parent="1">
          <mxGeometry x="200" y="680" width="40" height="40" as="geometry" />
        </mxCell>
      </root>
    </mxGraphModel>
  </diagram>
</mxfile>
